# Blender v2.74 (sub 0) OBJ File: ''
# www.blender.org
mtllib clara.mtl
o Box
v 0.559700 -0.003200 0.485400
v 0.559700 -0.003200 -0.514600
v 0.559700 -1.003200 0.485400
v 0.559700 -1.003200 -0.514600
v -0.440300 -0.003200 -0.514600
v -0.440300 -0.003200 0.485400
v -0.440300 -1.003200 -0.514600
v -0.440300 -1.003200 0.485400
vt 0.000000 1.000000
vt 0.000000 0.000000
vt 1.000000 0.000000
vt 1.000000 1.000000
vn 1.000000 0.000000 0.000000
vn -1.000000 0.000000 0.000000
vn 0.000000 1.000000 0.000000
vn 0.000000 -1.000000 0.000000
vn 0.000000 0.000000 1.000000
vn 0.000000 0.000000 -1.000000
usemtl BoxDefault
s off
f 1/1/1 3/2/1 4/3/1 2/4/1
f 5/1/2 7/2/2 8/3/2 6/4/2
f 5/1/3 6/2/3 1/3/3 2/4/3
f 8/1/4 7/2/4 4/3/4 3/4/4
f 6/1/5 8/2/5 3/3/5 1/4/5
f 2/1/6 4/2/6 7/3/6 5/4/6
o Cone1
v 0.070500 1.484100 0.000000
v 0.070500 0.484100 0.500000
v 0.320500 0.484100 0.433000
v 0.503500 0.484100 0.250000
v 0.570500 0.484100 0.000000
v 0.503500 0.484100 -0.250000
v 0.320500 0.484100 -0.433000
v 0.070500 0.484100 -0.500000
v -0.179500 0.484100 -0.433000
v -0.362500 0.484100 -0.250000
v -0.429500 0.484100 0.000000
v -0.362500 0.484100 0.250000
v -0.179500 0.484100 0.433000
v 0.070500 0.484100 0.000000
vt 0.000000 1.000000
vt 0.000000 0.000000
vt 0.083333 0.000000
vt 0.083333 1.000000
vt 0.166667 0.000000
vt 0.166667 1.000000
vt 0.250000 0.000000
vt 0.250000 1.000000
vt 0.333333 0.000000
vt 0.333333 1.000000
vt 0.416667 0.000000
vt 0.416667 1.000000
vt 0.500000 0.000000
vt 0.500000 1.000000
vt 0.583333 0.000000
vt 0.583333 1.000000
vt 0.666667 0.000000
vt 0.666667 1.000000
vt 0.750000 0.000000
vt 0.750000 1.000000
vt 0.833333 0.000000
vt 0.833333 1.000000
vt 0.916667 0.000000
vt 0.916667 1.000000
vt 1.000000 0.000000
vn 0.233100 0.434900 0.869800
vn 0.636700 0.434900 0.636700
vn 0.869800 0.434900 0.233100
vn 0.869800 0.434900 -0.233100
vn 0.636700 0.434900 -0.636700
vn 0.233100 0.434900 -0.869800
vn -0.233100 0.434900 -0.869800
vn -0.636700 0.434900 -0.636700
vn -0.869800 0.434900 -0.233100
vn -0.869800 0.434900 0.233100
vn -0.636700 0.434900 0.636700
vn -0.233100 0.434900 0.869800
vn 0.000000 -1.000000 0.000000
usemtl Cone1Default
s off
f 9/5/7 10/6/7 11/7/7
f 9/8/8 11/7/8 12/9/8
f 9/10/9 12/9/9 13/11/9
f 9/12/10 13/11/10 14/13/10
f 9/14/11 14/13/11 15/15/11
f 9/16/12 15/15/12 16/17/12
f 9/18/13 16/17/13 17/19/13
f 9/20/14 17/19/14 18/21/14
f 9/22/15 18/21/15 19/23/15
f 9/24/16 19/23/16 20/25/16
f 9/26/17 20/25/17 21/27/17
f 9/28/18 21/27/18 10/29/18
f 11/7/19 10/6/19 22/5/19
f 12/9/19 11/7/19 22/5/19
f 13/11/19 12/9/19 22/5/19
f 14/13/19 13/11/19 22/5/19
f 15/15/19 14/13/19 22/5/19
f 16/17/19 15/15/19 22/5/19
f 17/19/19 16/17/19 22/5/19
f 18/21/19 17/19/19 22/5/19
f 19/23/19 18/21/19 22/5/19
f 20/25/19 19/23/19 22/5/19
f 21/27/19 20/25/19 22/5/19
f 10/29/19 21/27/19 22/5/19
o Cylinder
v 0.065600 0.514800 0.486000
v 0.195000 0.514800 0.469000
v 0.315600 0.514800 0.419000
v 0.419200 0.514800 0.339600
v 0.498600 0.514800 0.236000
v 0.548600 0.514800 0.115400
v 0.565600 0.514800 -0.014000
v 0.548600 0.514800 -0.143400
v 0.498600 0.514800 -0.264000
v 0.419200 0.514800 -0.367600
v 0.315600 0.514800 -0.447000
v 0.195000 0.514800 -0.497000
v 0.065600 0.514800 -0.514000
v -0.063800 0.514800 -0.497000
v -0.184400 0.514800 -0.447000
v -0.288000 0.514800 -0.367600
v -0.367400 0.514800 -0.264000
v -0.417400 0.514800 -0.143400
v -0.434400 0.514800 -0.014000
v -0.417400 0.514800 0.115400
v -0.367400 0.514800 0.236000
v -0.288000 0.514800 0.339600
v -0.184400 0.514800 0.419000
v -0.063800 0.514800 0.469000
v 0.065600 -0.485200 0.486000
v 0.195000 -0.485200 0.469000
v 0.315600 -0.485200 0.419000
v 0.419200 -0.485200 0.339600
v 0.498600 -0.485200 0.236000
v 0.548600 -0.485200 0.115400
v 0.565600 -0.485200 -0.014000
v 0.548600 -0.485200 -0.143400
v 0.498600 -0.485200 -0.264000
v 0.419200 -0.485200 -0.367600
v 0.315600 -0.485200 -0.447000
v 0.195000 -0.485200 -0.497000
v 0.065600 -0.485200 -0.514000
v -0.063800 -0.485200 -0.497000
v -0.184400 -0.485200 -0.447000
v -0.288000 -0.485200 -0.367600
v -0.367400 -0.485200 -0.264000
v -0.417400 -0.485200 -0.143400
v -0.434400 -0.485200 -0.014000
v -0.417400 -0.485200 0.115400
v -0.367400 -0.485200 0.236000
v -0.288000 -0.485200 0.339600
v -0.184400 -0.485200 0.419000
v -0.063800 -0.485200 0.469000
v 0.065600 0.514800 -0.014000
v 0.065600 -0.485200 -0.014000
vt 0.000000 1.000000
vt 0.000000 0.000000
vt 0.041667 0.000000
vt 0.041667 1.000000
vt 0.083333 0.000000
vt 0.083333 1.000000
vt 0.125000 0.000000
vt 0.125000 1.000000
vt 0.166667 0.000000
vt 0.166667 1.000000
vt 0.208333 0.000000
vt 0.208333 1.000000
vt 0.250000 0.000000
vt 0.250000 1.000000
vt 0.291667 0.000000
vt 0.291667 1.000000
vt 0.333333 0.000000
vt 0.333333 1.000000
vt 0.375000 0.000000
vt 0.375000 1.000000
vt 0.416667 0.000000
vt 0.416667 1.000000
vt 0.458333 0.000000
vt 0.458333 1.000000
vt 0.500000 0.000000
vt 0.500000 1.000000
vt 0.541667 0.000000
vt 0.541667 1.000000
vt 0.583333 0.000000
vt 0.583333 1.000000
vt 0.625000 0.000000
vt 0.625000 1.000000
vt 0.666667 0.000000
vt 0.666667 1.000000
vt 0.708333 0.000000
vt 0.708333 1.000000
vt 0.750000 0.000000
vt 0.750000 1.000000
vt 0.791667 0.000000
vt 0.791667 1.000000
vt 0.833333 0.000000
vt 0.833333 1.000000
vt 0.875000 0.000000
vt 0.875000 1.000000
vt 0.916667 0.000000
vt 0.916667 1.000000
vt 0.958333 0.000000
vt 0.958333 1.000000
vt 1.000000 0.000000
vt 1.000000 1.000000
vn 0.130300 0.000000 0.991500
vn 0.383000 0.000000 0.923800
vn 0.608300 0.000000 0.793700
vn 0.793700 0.000000 0.608300
vn 0.923800 0.000000 0.383000
vn 0.991500 0.000000 0.130300
vn 0.991500 0.000000 -0.130300
vn 0.923800 0.000000 -0.383000
vn 0.793700 0.000000 -0.608300
vn 0.608300 0.000000 -0.793700
vn 0.383000 0.000000 -0.923800
vn 0.130300 0.000000 -0.991500
vn -0.130300 0.000000 -0.991500
vn -0.383000 0.000000 -0.923800
vn -0.608300 0.000000 -0.793700
vn -0.793700 0.000000 -0.608300
vn -0.923800 0.000000 -0.383000
vn -0.991500 0.000000 -0.130300
vn -0.991500 0.000000 0.130300
vn -0.923800 0.000000 0.383000
vn -0.793700 0.000000 0.608300
vn -0.608300 0.000000 0.793700
vn -0.383000 0.000000 0.923800
vn -0.130300 0.000000 0.991500
vn 0.000000 1.000000 0.000000
vn 0.000000 -1.000000 0.000000
usemtl CylinderDefault
s off
f 23/30/20 47/31/20 48/32/20 24/33/20
f 24/33/21 48/32/21 49/34/21 25/35/21
f 25/35/22 49/34/22 50/36/22 26/37/22
f 26/37/23 50/36/23 51/38/23 27/39/23
f 27/39/24 51/38/24 52/40/24 28/41/24
f 28/41/25 52/40/25 53/42/25 29/43/25
f 29/43/26 53/42/26 54/44/26 30/45/26
f 30/45/27 54/44/27 55/46/27 31/47/27
f 31/47/28 55/46/28 56/48/28 32/49/28
f 32/49/29 56/48/29 57/50/29 33/51/29
f 33/51/30 57/50/30 58/52/30 34/53/30
f 34/53/31 58/52/31 59/54/31 35/55/31
f 35/55/32 59/54/32 60/56/32 36/57/32
f 36/57/33 60/56/33 61/58/33 37/59/33
f 37/59/34 61/58/34 62/60/34 38/61/34
f 38/61/35 62/60/35 63/62/35 39/63/35
f 39/63/36 63/62/36 64/64/36 40/65/36
f 40/65/37 64/64/37 65/66/37 41/67/37
f 41/67/38 65/66/38 66/68/38 42/69/38
f 42/69/39 66/68/39 67/70/39 43/71/39
f 43/71/40 67/70/40 68/72/40 44/73/40
f 44/73/41 68/72/41 69/74/41 45/75/41
f 45/75/42 69/74/42 70/76/42 46/77/42
f 46/77/43 70/76/43 47/78/43 23/79/43
f 23/30/44 24/33/44 71/31/44
f 24/33/44 25/35/44 71/31/44
f 25/35/44 26/37/44 71/31/44
f 26/37/44 27/39/44 71/31/44
f 27/39/44 28/41/44 71/31/44
f 28/41/44 29/43/44 71/31/44
f 29/43/44 30/45/44 71/31/44
f 30/45/44 31/47/44 71/31/44
f 31/47/44 32/49/44 71/31/44
f 32/49/44 33/51/44 71/31/44
f 33/51/44 34/53/44 71/31/44
f 34/53/44 35/55/44 71/31/44
f 35/55/44 36/57/44 71/31/44
f 36/57/44 37/59/44 71/31/44
f 37/59/44 38/61/44 71/31/44
f 38/61/44 39/63/44 71/31/44
f 39/63/44 40/65/44 71/31/44
f 40/65/44 41/67/44 71/31/44
f 41/67/44 42/69/44 71/31/44
f 42/69/44 43/71/44 71/31/44
f 43/71/44 44/73/44 71/31/44
f 44/73/44 45/75/44 71/31/44
f 45/75/44 46/77/44 71/31/44
f 46/77/44 23/79/44 71/31/44
f 48/32/45 47/31/45 72/30/45
f 49/34/45 48/32/45 72/30/45
f 50/36/45 49/34/45 72/30/45
f 51/38/45 50/36/45 72/30/45
f 52/40/45 51/38/45 72/30/45
f 53/42/45 52/40/45 72/30/45
f 54/44/45 53/42/45 72/30/45
f 55/46/45 54/44/45 72/30/45
f 56/48/45 55/46/45 72/30/45
f 57/50/45 56/48/45 72/30/45
f 58/52/45 57/50/45 72/30/45
f 59/54/45 58/52/45 72/30/45
f 60/56/45 59/54/45 72/30/45
f 61/58/45 60/56/45 72/30/45
f 62/60/45 61/58/45 72/30/45
f 63/62/45 62/60/45 72/30/45
f 64/64/45 63/62/45 72/30/45
f 65/66/45 64/64/45 72/30/45
f 66/68/45 65/66/45 72/30/45
f 67/70/45 66/68/45 72/30/45
f 68/72/45 67/70/45 72/30/45
f 69/74/45 68/72/45 72/30/45
f 70/76/45 69/74/45 72/30/45
f 47/78/45 70/76/45 72/30/45
